<svg xmlns="http://www.w3.org/2000/svg" xml:space="preserve" style="fill-rule:evenodd;clip-rule:evenodd;stroke-linejoin:round;stroke-miterlimit:2" viewBox="0 0 10763 1550"><path d="M3.299 0h10756.2v1550H3.299z" style="fill:none"/><clipPath id="a"><path d="M3.299 0h10756.2v1550H3.299z"/></clipPath><g clip-path="url(#a)"><path d="M1497.5 1043.74c-15.228 1.658-30.532 2.381-45.823 2.224l-95.318 183.867c-44.666 86.179-151.109 119.938-237.282 75.27-86.181-44.672-119.944-151.107-75.27-237.282l133.494-257.547 40.095-77.34a158 158 0 0 1 2.151-3.982c.638-1.17 1.262-2.299 1.909-3.465.494-.796.956-1.604 1.45-2.401a112 112 0 0 1 1.958-3.153 71 71 0 0 1 2.613-4.03c.458-.728.983-1.428 1.463-2.114 0-.021.013-.025.011-.032.709-1.014 1.41-2.033 2.136-3.017a91 91 0 0 1 2.166-2.927l.017-.035c.094-.108.141-.208.241-.318a55 55 0 0 1 2.178-2.796c.525-.7 1.066-1.348 1.618-2.028a38 38 0 0 1 1.932-2.32c.017-.034.017-.034.062-.048.149-.204.348-.43.528-.623a77 77 0 0 1 2.66-3.027.7.7 0 0 1 .264-.268l.017-.034c.341-.428.716-.839 1.077-1.224.312-.362.604-.696.958-.994-.014-.045.018-.034.018-.034.279-.33.599-.645.904-.962.318-.343.64-.673.964-1.017.34-.364.68-.749 1.051-1.081.329-.353.674-.725 1.022-1.085.2-.198.411-.386.609-.591.006-.002.011-.011.024-.015l.004-.008c.912-.915 1.844-1.809 2.779-2.695.614-.6 1.242-1.198 1.861-1.779a175 175 0 0 1 3.982-3.567 159 159 0 0 1 4.704-3.939c.599-.531 1.252-1.008 1.872-1.497.207-.2.447-.383.696-.541.078-.067.165-.13.252-.193a130 130 0 0 1 4.732-3.557c.739-.54 1.495-1.05 2.246-1.573.843-.594 1.683-1.195 2.537-1.779a176 176 0 0 1 5.603-3.612c.44-.296.911-.581 1.383-.866 1.199-.75 2.412-1.455 3.631-2.162a177 177 0 0 1 11.316-5.986 185 185 0 0 1 3.768-1.729 130 130 0 0 1 7.793-3.325 131 131 0 0 1 7.916-2.938c1.323-.448 2.648-.89 4.005-1.32s2.694-.834 4.033-1.23c1.372-.385 2.711-.782 4.065-1.133a47 47 0 0 1 3.165-.783 11 11 0 0 1 .932-.246c5.368-1.305 10.803-2.332 16.274-3.136 1.45-.225 2.885-.41 4.334-.55 2.894-.363 5.774-.608 8.67-.808 1.379-.089 2.766-.181 4.184-.261.079.004.125-.011.159.007a113 113 0 0 1 4.144-.12c1.192-.03 2.361-.023 3.533-.025 7.428-.038 14.906.442 22.333 1.414 1.135.145 2.277.295 3.432.483 4.472.666 8.941 1.481 13.376 2.528 1.199.26 2.394.549 3.607.854.398.088.836.19 1.247.323 1.222.309 2.418.648 3.62.985 1.409.407 2.819.813 4.201 1.249 2.282.692 4.548 1.467 6.8 2.267 1.229.443 2.496.894 3.743 1.373.994.353 1.962.736 2.921 1.158.573.216 1.185.441 1.743.698.889.38 1.803.73 2.715 1.159 1.163.484 2.343 1.02 3.494 1.53l.189.104c2.44 1.146 4.874 2.316 7.293 3.575a199 199 0 0 1 7.126 3.899l.194.095c1.079.646 2.198 1.301 3.258 1.975.882.495 1.695 1.041 2.524 1.546.519.312 1.069.678 1.57 1.024a43 43 0 0 1 2.629 1.719 165 165 0 0 1 3.279 2.267 150 150 0 0 1 5.772 4.25c1.16.877 2.3 1.802 3.443 2.713.974.786 1.934 1.57 2.891 2.39.346.26.681.552.983.833a112 112 0 0 1 2.775 2.449 162 162 0 0 1 9.778 9.479c.818.829 1.592 1.679 2.367 2.528a164 164 0 0 1 14.034 17.426c.68.957 1.354 1.917 2.015 2.902a107 107 0 0 1 2.293 3.462c.035.017.049.062.099.132a205 205 0 0 1 2.191 3.565c1.512 2.479 2.972 4.975 4.315 7.528a103.7 103.7 0 0 0 20.61-27.426l56.443-108.891a87 87 0 0 0-3.814-3.953 300 300 0 0 0-3.941-3.949 155 155 0 0 0-4.347-4.197 180 180 0 0 0-3.123-2.871c-.523-.552-1.103-1.058-1.699-1.567-1.265-1.141-2.505-2.27-3.788-3.378-1.478-1.295-2.947-2.586-4.415-3.827a387 387 0 0 0-6.709-5.546c-1.094-.848-2.179-1.734-3.292-2.554a179 179 0 0 0-3.792-2.894c-1.56-1.219-3.153-2.364-4.74-3.51-.254-.218-.558-.414-.828-.591a212 212 0 0 0-5.052-3.597 154 154 0 0 0-6.003-4.034 21 21 0 0 0-1.354-.907 240 240 0 0 0-6.076-3.884c-.166-.075-.31-.193-.465-.279-2.178-1.329-4.393-2.682-6.642-3.967-2.037-1.217-4.144-2.391-6.284-3.575-2.654-1.506-5.356-2.939-8.096-4.359a256 256 0 0 0-8.229-4.104c-2.202-1.065-4.374-2.105-6.544-3.073-2.345-1.091-4.72-2.123-7.07-3.141-.178-.044-.333-.129-.495-.213a262 262 0 0 0-6.677-2.733c-.494-.213-1.002-.4-1.522-.583a153 153 0 0 0-6.755-2.573 169 169 0 0 0-5.853-2.062c-.301-.118-.636-.254-.954-.338-1.858-.634-3.71-1.27-5.599-1.844-1.408-.492-2.815-.892-4.24-1.35-1.744-.542-3.471-1.033-5.233-1.541a297 297 0 0 0-7.531-2.084c-1.737-.409-3.483-.866-5.258-1.262-.19-.104-.38-.122-.605-.157a118 118 0 0 0-4.692-1.093 44 44 0 0 0-2.259-.486c-1.379-.309-2.757-.619-4.147-.896-1.973-.413-3.931-.78-5.901-1.116a163 163 0 0 0-5.526-.963 92 92 0 0 0-5.436-.836.7.7 0 0 0-.256-.047c-3.83-.57-7.637-1.048-11.471-1.454a336 336 0 0 0-5.693-.569c-1.929-.185-3.797-.311-5.711-.45l-.032-.011a290 290 0 0 0-12.038-.662c-1.721-.045-3.412-.063-5.127-.11a167 167 0 0 0-5.719-.049l-.566-.012c-3.566.014-7.083.092-10.67.22-.165-.005-.321-.005-.48-.012-1.498.077-3.029.136-4.52.211l-1.211.064c-5.527.288-11.033.755-16.52 1.35-.045.014-.079-.003-.131.013-2.909.311-5.856.684-8.803 1.057a368 368 0 0 0-8.726 1.303c-2.914.477-5.814.998-8.682 1.531-2.918.556-5.769 1.14-8.651 1.784-2.87.619-5.742 1.317-8.615 2.015-.466.119-.931.245-1.398.365-1.16.29-2.34.607-3.5.897-.746.18-1.459.377-2.163.579a84 84 0 0 0-3.514 1.008c-.279.06-.518.136-.816.231-1.638.441-3.268.93-4.916 1.452-.473.122-.906.259-1.339.397-1.68.511-3.373 1.048-5.04 1.599q-2.035.645-3.969 1.344a171 171 0 0 0-4.653 1.632c-.786.278-1.599.586-2.386.864-2.541.913-5.079 1.903-7.615 2.899-.407.151-.824.34-1.223.495a413 413 0 0 0-7.552 3.164c-2.185.935-4.384 1.895-6.532 2.925-1.293.545-2.543 1.155-3.787 1.763-2.251 1.063-4.499 2.117-6.747 3.257-2.158 1.112-4.31 2.221-6.445 3.382a2.4 2.4 0 0 0-.551.281 261 261 0 0 0-7.078 3.896c-.212.095-.403.234-.634.357a330 330 0 0 0-7.499 4.406 199 199 0 0 0-7.511 4.73 268 268 0 0 0-6.833 4.514c-.63.435-1.31.892-1.962 1.369a292 292 0 0 0-4.742 3.368c-.763.534-1.525 1.067-2.271 1.652a234 234 0 0 0-5.981 4.508 261 261 0 0 0-7 5.556 304 304 0 0 0-6.87 5.742 325 325 0 0 0-6.529 5.805.4.4 0 0 1-.163.159 296 296 0 0 0-12.583 12.17c-.272.307-.555.603-.873.924-.509.503-.964.996-1.439 1.517-1.452 1.477-2.855 3.017-4.249 4.519a425 425 0 0 0-6.053 6.771c-2.017 2.318-3.942 4.636-5.884 6.987a275 275 0 0 0-11.221 14.534 630 630 0 0 0-5.167 7.322c-.149.203-.281.459-.475.677-1.613 2.403-3.237 4.839-4.802 7.305a499 499 0 0 0-3.894 6.199c-2.438 3.996-4.826 8.06-7.105 12.219a271 271 0 0 0-3.879 7.254l-173.591 334.881c-81.117 156.51-19.779 349.87 136.72 430.997 156.532 81.138 349.864 19.781 430.991-136.718l152.314-293.844c-7.851 4.063-15.922 7.853-24.124 11.415-36.479 15.804-75.048 25.962-114.632 30.205" style="fill:#14b8a6;fill-rule:nonzero"/><path d="M1931.51 214.025c-.4-1.26-.818-2.486-1.287-3.696-.569-1.547-1.14-3.102-1.745-4.673-.354-1.026-.764-2.048-1.158-3.068-.778-1.937-1.564-3.921-2.41-5.893-.193-.472-.398-.94-.586-1.443-1.118-2.604-2.235-5.208-3.437-7.807-1.25-2.754-2.52-5.523-3.838-8.22a456 456 0 0 0-3.871-7.676 423 423 0 0 0-4.205-7.806 280 280 0 0 0-8.296-14.046 303 303 0 0 0-11.287-16.86 125 125 0 0 0-3.185-4.324 281 281 0 0 0-9.547-12.27 164 164 0 0 0-3.412-4.031 275 275 0 0 0-11.534-12.863 150 150 0 0 0-4.009-4.14 258 258 0 0 0-3.941-3.949 160 160 0 0 0-4.345-4.191c-1.028-.975-2.075-1.923-3.122-2.871-.524-.552-1.104-1.058-1.699-1.566-1.266-1.142-2.506-2.271-3.784-3.387-1.483-1.287-2.952-2.578-4.419-3.819a387 387 0 0 0-6.71-5.546c-1.096-.854-2.172-1.736-3.292-2.554-1.266-.985-2.504-1.951-3.793-2.9-1.559-1.213-3.152-2.358-4.739-3.504-.254-.218-.558-.414-.821-.593a229 229 0 0 0-5.059-3.594 176 176 0 0 0-5.998-4.043c-.446-.307-.894-.62-1.359-.899a240 240 0 0 0-6.075-3.884c-.16-.077-.311-.193-.466-.279-2.178-1.329-4.392-2.682-6.642-3.967-2.036-1.217-4.144-2.391-6.284-3.575-2.653-1.505-5.355-2.938-8.09-4.361a245 245 0 0 0-8.235-4.102c-2.202-1.065-4.369-2.113-6.544-3.073-2.345-1.091-4.72-2.123-7.07-3.141-.178-.043-.333-.129-.495-.213a258 258 0 0 0-6.677-2.732 24 24 0 0 0-1.522-.584 146 146 0 0 0-6.755-2.573 169 169 0 0 0-5.853-2.062c-.301-.118-.635-.254-.954-.338-1.858-.634-3.712-1.276-5.601-1.85-1.405-.486-2.812-.886-4.232-1.346-1.75-.54-3.477-1.031-5.232-1.541a331 331 0 0 0-7.538-2.082c-1.731-.411-3.476-.868-5.258-1.262-.189-.104-.38-.122-.605-.157-1.54-.393-3.125-.772-4.694-1.1a52 52 0 0 0-2.257-.479c-1.379-.309-2.757-.619-4.146-.896-1.973-.413-3.932-.78-5.902-1.115-1.838-.349-3.65-.678-5.526-.964-1.89-.332-3.798-.63-5.692-.883-3.83-.57-7.63-1.05-11.464-1.455-1.88-.208-3.802-.395-5.7-.568-1.929-.185-3.83-.328-5.745-.468-4.014-.298-8.024-.52-12.036-.655-1.721-.045-3.414-.069-5.127-.109a162 162 0 0 0-5.719-.049c-3.917-.017-7.808.072-11.716.195-1.785.09-3.572.174-5.357.263-5.692.284-11.349.748-17.018 1.373-2.91.312-5.857.685-8.804 1.058-2.917.399-5.809.833-8.725 1.302a377 377 0 0 0-8.682 1.531c-2.918.556-5.769 1.14-8.658 1.787-2.869.618-5.735 1.314-8.608 2.012a370 370 0 0 0-7.068 1.843c-1.179.318-2.35.639-3.513 1.008-2.351.639-4.739 1.34-7.072 2.08-1.675.503-3.368 1.04-5.033 1.597q-2.035.645-3.969 1.344c-2.358.798-4.705 1.649-7.046 2.498-2.534.911-5.072 1.901-7.608 2.897-.407.151-.824.34-1.225.488a477 477 0 0 0-7.557 3.173c-2.179.933-4.384 1.896-6.526 2.923-1.298.548-2.549 1.158-3.795 1.759-2.245 1.061-4.49 2.121-6.739 3.261-2.158 1.112-4.316 2.223-6.444 3.382-.194.061-.38.17-.553.275a282 282 0 0 0-7.083 3.904c-.205.093-.402.234-.627.355a323 323 0 0 0-7.506 4.408 199 199 0 0 0-7.505 4.728 291 291 0 0 0-6.84 4.51c-.622.439-1.308.898-1.956 1.367a328 328 0 0 0-4.741 3.374c-.762.534-1.531 1.069-2.277 1.654a242 242 0 0 0-5.975 4.506 282 282 0 0 0-7.008 5.551 300 300 0 0 0-13.39 11.552c-.036.068-.094.108-.164.159a296 296 0 0 0-12.582 12.17c-.273.307-.556.603-.882.92a395 395 0 0 0-5.68 6.04 410 410 0 0 0-6.052 6.771c-2.017 2.318-3.942 4.636-5.893 6.983a281 281 0 0 0-11.219 14.54 617 617 0 0 0-5.16 7.32c-.156.205-.288.461-.482.679-1.613 2.403-3.237 4.839-4.802 7.305-1.294 2.039-2.615 4.109-3.896 6.193-2.436 4.002-4.825 8.06-7.103 12.225a310 310 0 0 0-3.879 7.254l-152.334 293.871c.96-.518 1.913-1.033 2.887-1.506l.447-.248c2.743-1.376 5.425-2.653 8.158-3.947a151 151 0 0 1 5.129-2.395 183 183 0 0 1 7.779-3.456c2.879-1.262 5.756-2.438 8.599-3.631l.928-.373c.547-.202 1.061-.422 1.531-.62a322 322 0 0 1 9.453-3.561c2.438-.88 5.036-1.839 7.656-2.749 1.776-.613 3.601-1.249 5.443-1.833a249 249 0 0 1 6.048-1.919 334 334 0 0 1 8.215-2.42c1.584-.475 3.195-.936 4.824-1.339 2.745-.764 5.567-1.531 8.433-2.227l.421-.105c3.385-.832 6.79-1.621 10.172-2.373a383 383 0 0 1 10.737-2.204c3.541-.675 7.026-1.304 10.505-1.839a416 416 0 0 1 10.608-1.58l.578-.105c3.54-.433 6.877-.852 10.223-1.223a370 370 0 0 1 21.03-1.686l6.751-.306c4.565-.14 9.116-.254 13.676-.228 1.46-.015 2.923-.024 4.354.027l95.323-183.896a179 179 0 0 1 2.149-3.989c.641-1.164 1.27-2.295 1.911-3.458.494-.797.954-1.612 1.45-2.402a110 110 0 0 1 1.959-3.153 142 142 0 0 1 6.221-9.2c.728-.999 1.43-1.968 2.16-2.918l.018-.034c.105-.119.153-.213.247-.32a61 61 0 0 1 2.178-2.797c.532-.702 1.066-1.348 1.623-2.036a44 44 0 0 1 1.925-2.318 174.6 174.6 0 0 1 42.811-36.603 131 131 0 0 1 3.631-2.161 178 178 0 0 1 11.322-5.989 234 234 0 0 1 3.767-1.735 134 134 0 0 1 7.795-3.319 130 130 0 0 1 7.909-2.936c1.329-.45 2.652-.898 4.003-1.326 1.357-.431 2.696-.827 4.042-1.226 1.365-.383 2.711-.782 4.064-1.133 1.374-.379 2.761-.712 4.097-1.029a177 177 0 0 1 16.274-3.136c4.332-.627 8.643-1.07 12.998-1.356 1.386-.091 2.772-.183 4.184-.261.08.004.131-.013.157.001a124 124 0 0 1 4.152-.116c1.186-.027 2.359-.03 3.534-.025 7.428-.038 14.905.442 22.327 1.416a88 88 0 0 1 3.432.483c4.477.664 8.946 1.479 13.382 2.526 1.199.26 2.385.545 3.6.856.404.086.836.191 1.254.321 1.216.311 2.411.651 3.613.988 1.41.406 2.819.812 4.208 1.246 2.276.694 4.541 1.469 6.794 2.269 1.228.443 2.502.892 3.742 1.373.994.354 1.962.736 2.919 1.151.582.221 1.187.449 1.743.699.897.384 1.806.736 2.717 1.165 1.164.485 2.344 1.021 3.494 1.53l.196.102a192 192 0 0 1 7.293 3.575 208 208 0 0 1 7.126 3.899l.187.097c1.08.646 2.198 1.301 3.264 1.973.876.497 1.69 1.043 2.518 1.548.519.312 1.067.672 1.57 1.024a40 40 0 0 1 2.629 1.72c1.111.743 2.214 1.509 3.28 2.266 1.958 1.378 3.9 2.789 5.769 4.244 1.163.883 2.3 1.802 3.445 2.719.973.78 1.935 1.57 2.89 2.384.347.266.682.558.984.84.949.815 1.872 1.618 2.775 2.448a162 162 0 0 1 9.778 9.479c.825.827 1.599 1.677 2.373 2.526a165 165 0 0 1 14.028 17.428c.68.957 1.355 1.917 2.018 2.908a107 107 0 0 1 2.291 3.456c.032.011.048.063.096.125a177 177 0 0 1 2.193 3.572 164 164 0 0 1 6.397 11.399c2.499 4.94 4.79 9.966 6.812 15.107a92 92 0 0 1 1.514 3.944c.502 1.313.95 2.636 1.432 3.976.442 1.325.89 2.648 1.319 3.999.43 1.357.826 2.696 1.229 4.033a136 136 0 0 1 2.156 8.164 129 129 0 0 1 1.775 8.285c.274 1.357.512 2.689.766 4.074.695 4.21 1.247 8.459 1.626 12.705.124 1.398.249 2.802.327 4.214a173.9 173.9 0 0 1-5.24 56.077 35 35 0 0 1-.776 2.914 184 184 0 0 1-1.88 6.271l-.011.032a129 129 0 0 1-1.144 3.457 142 142 0 0 1-3.931 10.386c-.46 1.128-.931 2.266-1.448 3.418-.359.861-.76 1.706-1.126 2.569-.581 1.195-1.15 2.363-1.724 3.556-.665 1.356-1.324 2.71-2.017 4.046l-133.483 257.515-40.112 77.374c-15.094 29.119-37.231 52.243-63.269 68.362-22.05 13.737-46.938 22.407-72.661 25.417-33.753 3.994-68.988-1.728-101.358-18.507-32.369-16.772-57.354-42.267-73.548-72.15a99 99 0 0 0-7.626 8.066l-5.247 6.707a80 80 0 0 0-2.994 4.442l-1.972 3.179a3.5 3.5 0 0 1-.296.499l-1.224 2.195c-.36.704-.809 1.487-1.237 2.313l-56.457 108.916c23.796 25.04 52.096 46.631 84.474 63.414 32.369 16.773 66.326 27.458 100.512 32.474a318 318 0 0 0 80.13 1.515 321.7 321.7 0 0 0 93.756-24.72c38.593-16.695 74.054-41.001 103.827-72.138 20.561-21.479 38.418-46.169 52.766-73.849l173.596-334.889a334 334 0 0 0 3.691-7.352c2.084-4.26 4.023-8.552 5.889-12.849a493 493 0 0 0 2.806-6.758l.055-.095c1.07-2.68 2.132-5.364 3.155-8.035.064-.291.205-.542.286-.781a791 791 0 0 0 2.998-8.44 274 274 0 0 0 5.414-17.549c.796-2.941 1.578-5.856 2.312-8.834a371 371 0 0 0 2.041-8.855q.878-4.034 1.662-8.123c.071-.449.157-.853.244-1.251a291 291 0 0 0 2.692-17.297c.003-.079.006-.159.035-.225.364-2.889.696-5.789.976-8.673.305-3.006.543-5.955.745-8.928.215-2.998.381-5.952.497-8.926.122-2.486.201-4.993.235-7.486.05-.941.045-1.878.048-2.81.028-1.929.024-3.87.02-5.81.014-.808-.011-1.626-.014-2.4a263 263 0 0 0-.256-8.183 199 199 0 0 0-.463-8.857c-.2-2.895-.445-5.776-.725-8.674-.03-.254-.022-.498-.073-.724-.261-2.684-.542-5.34-.895-8.023-.012-.217-.021-.427-.081-.615-.291-2.418-.624-4.816-.952-7.215-.371-2.493-.8-4.945-1.228-7.391-.228-1.372-.449-2.738-.748-4.108-.399-2.356-.881-4.707-1.375-7.025a412 412 0 0 0-1.768-7.995c-.086-.449-.191-.871-.296-1.293-.661-2.642-1.308-5.289-2.025-7.885a212 212 0 0 0-2.02-7.197 106 106 0 0 0-1.189-4.018c-.46-1.696-1.015-3.355-1.597-5.034-.718-2.354-1.542-4.681-2.37-6.979" style="fill:#2dd4bf;fill-rule:nonzero"/><path d="m3399.92 1018.48 2.4 92.4h3.6l36-94.8 164.4-312h166.8l-367.2 606h-91.2l-117.6-606h163.2zm774 45.6q-9.6 45.6-13.8 92.4t-4.2 88.8q0 16.8.6 31.8t1.8 28.2h-109.2l-16.8-103.2h-4.8q-13.2 21.6-34.2 42.6t-46.2 38.4-53.4 27.6-58.2 10.2q-79.2 0-117-51.6t-37.8-138q0-87.6 22.2-168t69-141.6 118.2-97.8 169.8-36.6q42 0 91.8 7.8t96.6 21zm-282 133.2q21.6 0 40.8-9t35.4-23.4 28.8-31.2 22.2-31.2l60-279.6q-13.2-6-30.6-9t-34.2-3q-43.2 0-76.8 25.8t-57 67.2-35.4 93.6-12 105q0 38.4 12.6 66.6t46.2 28.2m675.6 106.8 79.2-372q7.2-33.6 7.2-58.8 0-26.4-10.8-41.4t-39.6-15q-21.6 0-43.2 10.8t-40.8 28.8-36 40.2-28.8 45l-76.8 362.4h-147.6l127.2-600h111.6l-6 105.6h4.8q15.6-19.2 36.6-40.8t48.6-39.6 61.8-30 77.4-12q54 0 86.4 29.4t32.4 97.8q0 18-1.8 38.4t-7.8 44.4l-86.4 406.8zm390-600.001h147.6l-127.2 600h-147.6zm24-170.4q0-39.6 25.8-61.2t65.4-21.6q38.4 0 65.4 21.6t27 61.2q0 38.4-27 60.6t-65.4 22.2q-39.6 0-65.4-22.2t-25.8-60.6m188.4 170.4h78l24-112.8 157.2-44.4-33.6 157.2h140.4l-27.6 123.6h-139.2l-58.8 271.2q-7.2 32.4-7.2 52.8 0 26.4 12 36t36 9.6q22.8 0 41.4-4.8t39-15.6v110.4q-13.2 7.2-31.8 13.8t-40.2 10.8-44.4 6.6-42 2.4q-61.2 0-94.2-28.2t-33-85.8q0-12 1.8-25.2t4.2-27.6l69.6-326.4h-80.4zm610.8 337.201 1.2 93.6h7.2l32.4-94.8 163.2-336h157.2l-288 538.8q-36 67.2-67.8 123.6t-64.2 97.2-67.2 63.6-74.4 22.8q-52.8 0-79.2-18l39.6-117.6q7.2 3.6 15 4.8t15 1.2q28.8 0 58.8-27.6t60-88.8l-112.8-600h169.2zm980.4-577.201h146.4l-114 542.4q-18 86.4-46.8 145.8t-69.6 96.6-96 53.4-127.2 16.2q-69.6 0-117.6-16.2t-78.6-46.2-44.4-70.8-13.8-90q0-24 3-49.2t9-52.8l112.8-529.2h154.8l-110.4 528q-9.6 45.6-9.6 74.4 0 57.6 30 81.6t87.6 24q72 0 111.6-42t60-135.6zm273.6 8.4q57.6-10.8 116.4-15.6t105.6-4.8q55.2 0 104.4 13.2t85.2 40.2 57 69.6 21 100.2q0 66-19.8 114.6t-52.2 81.6-73.8 51.6-84.6 24.6l46.8 37.2 116.4 319.2h-172.8l-115.2-328.8-82.8-15.6-72 344.4h-156zm75.6 375.6h63.6q34.8 0 68.4-6.6t59.4-24 42-46.2 16.2-73.2q0-40.8-27.6-70.2t-88.8-29.4q-24 0-45 1.8t-35.4 4.2zm942 456.001h-505.2l177.6-840h156l-147.6 693.6h349.2zm98.4-140.4q24 13.2 61.8 23.4t79.8 10.2 64.2-16.2 23.4-49.8q0-24-14.4-41.4t-36.6-33-47.4-31.8-47.4-37.2-36.6-49.8-14.4-69.6q0-39.6 15.6-73.2t43.8-57.6 68.4-37.2 90.6-13.2q69.6 0 115.2 10.2t72 25.8l-40.8 112.8q-24-10.8-58.2-18t-71.4-7.2q-38.4 0-60.6 13.2t-22.2 42q0 19.2 14.4 34.2t36.6 30.6 47.4 31.8 47.4 39 36.6 52.2 14.4 70.2q0 99.6-64.8 148.2t-172.8 48.6q-61.2 0-112.2-11.4t-78.6-28.2z" style="fill:#0f766e;fill-rule:nonzero"/><path d="M8619.92 1224.88q0-42 26.4-66.6t69.6-24.6q44.4 0 70.8 24.6t26.4 66.6-26.4 67.2-70.8 25.2q-43.2 0-69.6-25.2t-26.4-67.2" style="fill:#2dd4bf;fill-rule:nonzero"/><path d="M9083.12 1126.48q-7.2 34.8.6 51.6t25.8 16.8q33.6 0 63.6-13.2l-3.6 106.8q-21.6 13.2-62.4 21.6t-80.4 8.4q-51.6 0-78.6-19.8t-27-73.8q0-27.6 7.2-63.6l147.6-697.2h147.6zm284.4-422.401h147.6l-127.2 600h-147.6zm24-170.4q0-39.6 25.8-61.2t65.4-21.6q38.4 0 65.4 21.6t27 61.2q0 38.4-27 60.6t-65.4 22.2q-39.6 0-65.4-22.2t-25.8-60.6m482.4 770.401 79.2-372q7.2-33.6 7.2-58.8 0-26.4-10.8-41.4t-39.6-15q-21.6 0-43.2 10.8t-40.8 28.8-36 40.2-28.8 45l-76.8 362.4h-147.6l127.2-600h111.6l-6 105.6h4.8q15.6-19.2 36.6-40.8t48.6-39.6 61.8-30 77.4-12q54 0 86.4 29.4t32.4 97.8q0 18-1.8 38.4t-7.8 44.4l-86.4 406.8zm535.18-248.4h-48l-51.6 248.4h-147.6l177.6-840h147.6l-105.6 495.6 44.4-15.6 169.2-240h164.4l-178.8 241.2-72 45.6 54 45.6 91.2 267.6h-158.4zM335.674 965.071l3.933 151.425s5.518.915 5.9 0c10.816-25.893 58.997-155.359 58.997-155.359L673.923 449.83h273.353l-601.769 993.117h-149.46L3.324 449.83h267.453zM1952.19 1203.03q39.331 21.633 101.278 38.348 61.947 16.716 130.777 16.716t105.211-26.548q36.382-26.549 38.348-81.613 0-39.331-23.598-67.847-23.599-28.515-59.981-54.08-36.381-25.566-77.679-52.114-41.298-26.549-77.68-60.964-36.38-34.414-59.98-81.612-23.6-47.199-23.599-114.061 0-64.897 25.566-119.961t71.779-94.395q46.215-39.331 112.095-60.964t148.476-21.632q114.06 0 188.79 16.716 74.73 16.715 117.994 42.281l-66.863 184.857q-39.332-17.699-95.379-29.498-56.046-11.8-117.01-11.8-62.931 0-99.312 21.633t-36.382 68.829q0 31.466 23.599 56.048t59.981 50.147q36.381 25.566 77.679 52.114 41.298 26.549 77.679 63.914t59.981 85.545q23.598 48.181 23.599 115.045 0 163.224-106.195 242.871-106.195 79.646-283.186 79.646-100.295 0-183.874-18.683-83.58-18.681-128.81-46.214z" style="fill:#0f766e;fill-rule:nonzero"/></g></svg>
