<?xml version="1.0" encoding="UTF-8" standalone="no"?><!DOCTYPE svg PUBLIC "-//W3C//DTD SVG 1.1//EN" "http://www.w3.org/Graphics/SVG/1.1/DTD/svg11.dtd"><svg width="100%" height="100%" viewBox="0 0 513 512" version="1.1" xmlns="http://www.w3.org/2000/svg" xmlns:xlink="http://www.w3.org/1999/xlink" xml:space="preserve" xmlns:serif="http://www.serif.com/" style="fill-rule:evenodd;clip-rule:evenodd;stroke-linejoin:round;stroke-miterlimit:2;"><rect id="favIcon-reverse" serif:id="favIcon reverse" x="0.753" y="0" width="512" height="512" style="fill:#134e4a;"/><g><path d="M436.397,148.911c-7.514,0.911 -10.474,1.822 -17.532,4.098c-9.107,2.96 -17.759,7.286 -27.094,12.75c-7.513,4.554 -11.384,7.286 -17.759,12.295c-3.415,2.505 -11.839,10.929 -14.799,14.344c-4.553,5.692 -8.196,12.295 -10.245,18.214c-0.683,2.05 -1.139,2.96 -1.594,3.416c-0.456,0.227 -0.683,1.138 -0.911,1.593c-0.228,0.683 -0.455,1.366 -0.455,1.822c-0.228,0.455 -0.228,2.049 -0.228,3.643c0,1.821 0,2.732 -0.228,2.276c-0.455,-1.593 0,-8.424 0.911,-12.067c1.139,-4.781 4.326,-12.75 7.514,-17.986c0.683,-1.139 0.91,-2.049 0.91,-1.822c-0.455,0.228 -4.326,5.465 -5.464,7.514c-1.366,2.277 -3.871,6.83 -4.781,9.562c-2.505,5.92 -2.732,10.701 -1.139,17.987c0.911,5.237 1.594,6.603 5.237,12.067c2.277,3.415 6.147,7.741 8.196,9.107c2.733,1.822 6.375,2.96 10.246,3.415c5.692,0.911 7.286,0.911 23.223,0.456c16.166,-0.228 24.818,0.683 32.786,3.187c1.594,0.228 2.732,0.683 2.96,0.683c0,-0.227 -2.049,-1.593 -3.87,-2.504c-3.188,-1.594 -9.335,-3.188 -14.572,-4.098c-1.594,-0.228 -2.96,-0.456 -2.96,-0.456c-0.227,0 0,-0.227 0.228,0c0.228,0 1.594,0 2.96,0.228c7.513,0.911 12.294,2.504 18.214,5.92c4.554,2.732 5.009,3.187 4.781,6.147c-0.455,5.692 -6.375,16.393 -14.571,25.5c-3.643,4.098 -12.067,12.295 -16.621,16.165c-6.83,5.692 -17.076,12.523 -28.687,19.126c-3.188,1.821 -6.148,3.87 -7.059,4.326c-1.366,0.91 -1.593,1.138 -4.098,2.049c-1.138,0.455 -2.277,0.91 -2.96,1.366c-0.91,0.455 -1.138,0.683 -0.683,1.138l0.228,0.455l1.138,-0.683c1.594,-0.683 2.96,-1.138 3.188,-1.138c0.228,0.455 -14.344,6.83 -18.67,8.424c-2.96,0.911 -2.96,0.911 -2.732,1.139c0.455,0.455 8.652,-2.05 15.71,-5.009c2.504,-0.911 4.781,-1.822 4.781,-1.822c0,0.228 -2.049,1.139 -4.553,2.505c-3.416,1.593 -5.692,2.504 -9.791,4.098c-2.959,0.911 -5.236,1.821 -5.009,1.821c0.456,0 6.831,-1.366 11.612,-2.504c8.197,-2.277 11.156,-3.188 16.621,-6.147c3.415,-1.822 3.187,-1.367 -0.683,0.91c-7.741,4.554 -16.393,8.197 -24.59,9.79c-11.839,2.733 -15.71,2.96 -20.491,1.594c-3.643,-0.91 -4.554,-1.594 -5.464,-4.553c-2.049,-5.92 1.138,-15.483 9.107,-25.273c2.504,-3.415 10.473,-10.928 16.393,-15.937c2.96,-2.505 5.692,-4.782 5.92,-4.782c0.455,-0.455 -1.139,0.456 -3.643,2.049c-5.237,3.416 -10.018,7.286 -13.661,10.474c-2.277,2.276 -1.366,0.91 1.594,-2.277c3.187,-3.188 6.375,-5.92 11.384,-9.563c6.602,-5.009 11.156,-7.741 21.174,-13.205c7.741,-4.326 18.897,-9.107 26.866,-11.84c4.098,-1.366 10.701,-3.187 11.612,-3.187c0.228,-0 0.455,-0.228 0.683,-0.228c-0,-0.227 -0.455,-0.227 -2.049,-0.227c-9.563,0.683 -14.116,1.593 -21.857,4.098c-2.277,0.683 -4.099,1.366 -4.099,1.366c0,-0.228 0.911,-0.455 1.822,-0.911c2.277,-0.911 3.187,-1.594 3.187,-1.821c0,-0.456 -0.227,-0.456 -1.594,-0c-3.642,0.91 -7.968,2.732 -12.294,4.781c-2.505,1.138 -6.375,2.96 -8.424,3.871c-9.108,4.326 -15.938,8.424 -22.996,13.66c-3.643,2.733 -5.464,4.326 -8.424,7.059c-2.505,2.504 -2.277,2.276 0.683,-1.594c5.009,-6.148 11.384,-12.067 18.67,-16.849c3.415,-2.276 5.236,-3.415 9.334,-5.464c1.822,-0.911 3.416,-1.594 3.416,-1.821c-0.228,-0 -1.594,0.455 -3.416,1.138c-7.513,2.505 -15.482,6.83 -25.272,13.889c-12.978,9.562 -22.996,21.401 -27.094,32.785c-0.911,2.277 -2.049,6.831 -2.049,8.197c-0,0.683 -0,0.683 -0.228,0.228c0,-0.228 -0.227,-1.594 -0.227,-3.188c-0,-4.553 0.683,-7.286 2.959,-12.295c2.277,-4.326 5.009,-8.196 10.246,-14.571c1.821,-2.277 0.683,-1.366 -2.049,1.594c-4.781,5.009 -7.741,9.107 -10.018,13.66c-2.732,5.465 -3.871,9.791 -4.098,14.572c-0.228,6.147 0.91,9.563 4.781,15.255c0.911,1.366 2.049,3.415 2.504,4.553c0.456,0.911 1.367,2.732 2.05,3.643c0.683,0.911 1.366,2.049 1.593,2.277c0.456,1.594 4.099,3.643 7.286,4.553c2.732,0.683 5.692,0.911 11.156,0.911c7.286,0 12.523,-0.683 19.126,-2.504c2.049,-0.683 2.732,-0.911 6.147,-0.911c4.553,-0.228 8.652,-0.911 10.929,-2.049c0.683,-0.228 1.821,-0.683 2.732,-0.911c2.049,-0.455 3.187,-0.911 5.692,-2.049c1.138,-0.455 2.732,-1.138 3.643,-1.594c3.187,-1.366 8.879,-4.553 10.701,-6.375c0.683,-0.228 1.366,-0.683 1.593,-0.911c1.139,-0.227 2.732,-1.138 6.603,-3.642c8.88,-6.148 12.75,-9.108 17.076,-12.978c17.076,-16.165 21.174,-20.491 26.183,-27.094c2.277,-3.188 2.049,-2.732 -0.455,0.911c-4.326,6.375 -14.799,18.669 -25.5,29.37c-1.594,1.594 -2.732,2.96 -2.505,2.96c0,0 -0.227,0.228 -0.455,0.456c-0.228,0.227 -0.683,0.683 -1.139,0.91c-0.683,0.683 -1.366,1.139 -6.375,4.554c-4.098,2.96 -7.058,5.236 -7.058,5.692c-0.455,0.683 0.911,-0 5.692,-3.188c5.237,-3.415 7.286,-4.781 9.791,-5.919c1.593,-0.683 10.701,-7.514 15.254,-11.384c9.335,-7.741 16.621,-16.393 22.54,-26.867c7.059,-12.294 8.88,-24.817 5.009,-35.745c-0.683,-2.277 -2.732,-6.603 -3.642,-7.969c-0.911,-1.139 2.504,1.821 2.959,2.96c0.228,0.455 -15.026,-16.621 -15.937,-17.304c-2.732,-1.821 -3.871,-2.505 -7.514,-4.098c-1.593,-0.683 -22.825,-3.415 -24.191,-3.415c-2.049,-0 1.196,0.227 -1.081,-0.228c-3.415,-0.683 -7.741,-1.139 -13.206,-1.366c-4.325,-0.228 -13.433,-0.911 -15.254,-1.366c-1.366,-0 -2.277,-0.683 -2.732,-1.594c-0.683,-1.138 -0.456,-3.415 0.227,-5.009c1.366,-2.277 5.465,-6.83 9.791,-10.701c8.196,-7.286 18.897,-14.799 28.915,-20.719c7.969,-4.553 26.639,-12.978 32.786,-15.027c2.049,-0.455 4.781,-0.91 6.83,-0.91c1.822,-0 2.049,-0 2.505,0.455c0.455,0.228 0.455,0.455 0.455,1.821c-0.228,2.049 -0.911,3.871 -2.504,7.286c-1.594,3.188 -2.277,4.326 -5.009,7.741c-0.911,1.366 -1.594,2.277 -1.594,2.277c0.228,-0 0.455,-0.228 0.911,-0.455c0.91,-0.456 0.455,-0 -1.139,2.049c-1.593,2.277 -2.732,3.415 -4.781,5.692c-0.911,0.91 -1.594,1.594 -1.594,1.821c0.228,0 0.683,-0.227 1.366,-0.683c2.049,-1.366 2.505,-1.594 2.732,-1.594c0.228,0 0.456,-0.227 0.684,-0.683c0.227,-0.227 0.455,-0.455 0.683,-0.227c1.138,0.227 14.343,-11.384 17.303,-15.483c0.683,-0.683 1.366,-2.049 1.822,-2.732c0.227,-0.683 0.683,-1.366 0.683,-1.593l-0,2.049c-0.228,1.138 -0.228,2.049 -0.228,2.276c0.228,0 0.683,-0.91 1.366,-2.276c2.049,-3.871 2.505,-6.831 1.594,-9.563c-0.683,-1.821 -2.732,-5.237 -5.237,-7.969c-2.504,-2.96 -8.196,-8.196 -9.562,-8.879c-3.188,-1.822 -8.197,-1.366 -17.759,1.138c-11.384,2.732 -22.085,7.286 -37.795,15.71c-11.612,6.147 -18.67,10.473 -25.5,16.165l-2.277,2.049l2.96,-2.959c9.335,-9.108 20.946,-17.076 37.111,-25.045c5.92,-2.96 10.474,-5.009 19.581,-8.197c6.603,-2.504 7.286,-2.732 8.652,-2.959l1.138,-0l-1.821,-0.456l1.366,-0.455c1.594,-0.683 1.594,-0.683 -1.366,-0.228Zm-21.63,29.826c-0.228,0.228 -2.732,1.594 -5.692,3.415c-10.018,5.92 -17.304,10.929 -23.906,16.166c-4.554,3.415 -10.474,8.652 -11.157,9.79c-0.227,0.455 -0.455,0.683 -0.683,0.683c0,-0.228 2.277,-2.96 4.554,-5.692c4.098,-4.554 10.246,-9.335 18.67,-14.572c5.236,-3.187 6.375,-3.87 12.75,-7.058c5.009,-2.732 6.375,-3.415 5.464,-2.732Z" style="fill:#fff;stroke:#fff;stroke-width:1px;"/><path d="M221.239,150.277c-20.491,1.594 -37.339,8.88 -50.317,21.857c-7.514,7.514 -10.701,12.751 -24.134,38.478c-2.505,4.554 -7.514,13.889 -11.157,20.947c-16.393,30.281 -19.58,36.656 -23.906,47.813c-2.732,6.375 -5.464,14.116 -8.196,22.312c-1.139,3.643 -2.277,6.831 -2.277,6.831c-0.228,0.455 -0,-4.554 0.455,-15.938c0.911,-15.937 0.683,-21.174 -2.049,-45.991c-1.821,-15.255 -2.96,-26.639 -3.871,-35.746c-1.138,-10.929 -2.504,-22.085 -3.187,-28.005c-1.139,-10.701 -2.732,-25.272 -3.188,-29.598l0,-1.594l-43.259,0l0,1.139c0.228,0.91 2.277,15.71 4.554,32.558c2.277,16.165 4.553,32.786 6.375,44.17c2.504,17.759 6.147,42.348 7.513,50.317c0.456,3.643 1.822,12.295 2.732,18.898c1.594,11.384 3.871,26.183 7.742,51.911c0.91,5.009 1.593,9.335 1.593,9.562c0.456,0.228 9.107,0.228 12.295,0c8.652,-1.138 15.255,-4.781 23.906,-13.433c2.05,-2.049 3.871,-4.098 3.871,-4.098c-0,-0.228 0.455,-0.911 1.138,-1.594c3.188,-3.643 9.563,-13.888 16.849,-28.232c6.602,-12.067 14.571,-27.094 16.848,-31.42c0.683,-1.139 4.098,-7.286 7.286,-13.433c8.652,-16.166 11.839,-22.085 20.719,-38.478c4.326,-7.969 9.79,-17.987 11.839,-22.085c7.286,-13.889 12.978,-23.451 17.304,-29.143l0.683,-0.683l-1.139,0.455c-6.375,3.643 -16.165,13.206 -25.272,24.362c-10.473,13.205 -20.719,28.232 -29.826,43.714c-8.424,14.344 -13.661,24.59 -22.313,42.804c-1.821,3.871 -3.415,7.058 -3.415,7.058c-0,-0.227 3.187,-8.879 6.375,-16.393c5.237,-12.294 9.79,-22.312 15.027,-33.241c9.107,-18.214 16.62,-30.964 27.321,-47.13c7.514,-11.156 11.84,-16.848 18.215,-23.223c12.067,-12.067 26.411,-21.174 39.844,-25.045l1.821,-0.683l-3.643,0c-4.781,-0.227 -8.196,-0.227 -11.156,0Z" style="fill:#fff;stroke:#fff;stroke-width:1px;"/><path d="M244.918,221.313c-12.067,1.366 -21.63,6.375 -28.916,15.027c-4.325,5.465 -5.919,7.969 -12.977,21.858c-5.692,11.839 -8.424,16.848 -12.523,24.589c-7.285,13.661 -11.156,26.411 -10.701,35.063c0.683,9.107 3.188,16.393 8.197,24.134c2.277,3.187 2.504,3.87 2.96,5.009c0.227,1.366 0.91,2.277 2.732,4.098c2.049,2.049 7.513,6.375 9.562,7.513c2.05,1.139 5.692,2.733 8.425,3.188c1.138,0.455 2.959,0.911 3.87,1.138c2.277,0.456 15.255,0.683 19.353,0.228c6.83,-0.911 13.888,-3.643 19.58,-7.741c2.505,-1.822 6.148,-5.009 8.197,-7.514c2.049,-2.276 4.098,-5.008 3.415,-4.781c-0.228,0.228 -0.455,0.456 -0.455,0.683c-0,0.228 -0.456,-0.227 -0.683,0c-0,0.228 -0.228,0.456 -0.456,0.228c0,-0 -0.227,-0.228 0,-0.228c0,-0.227 -1.593,0.911 -3.415,2.277c-3.187,2.505 -10.018,6.83 -13.888,8.88c-2.049,1.138 -5.92,2.504 -8.425,3.187c-5.692,1.366 -12.75,0.911 -19.58,-1.366c-3.188,-1.138 -5.692,-2.277 -8.652,-4.326c-2.96,-2.049 -5.236,-4.098 -7.286,-6.603c-3.643,-5.009 -5.009,-9.335 -5.692,-17.531c-0.455,-5.464 0.228,-11.384 1.822,-15.938c0.911,-2.732 2.504,-5.692 7.513,-14.116c5.009,-8.424 5.465,-9.107 9.335,-17.531c4.098,-8.424 9.335,-19.125 11.156,-22.54c2.733,-5.009 5.009,-7.742 8.197,-10.246c7.058,-5.237 15.938,-6.375 23.906,-2.96c4.326,1.822 8.197,5.009 11.612,9.107c0.911,1.139 1.821,2.049 1.821,2.049c0.456,-0.227 1.594,-2.276 3.871,-6.375c1.138,-2.049 2.96,-5.692 4.554,-8.424c2.049,-3.87 2.504,-4.781 2.276,-5.236c-0.227,-0.456 -2.732,-2.733 -5.009,-4.782c-5.692,-5.009 -12.522,-8.196 -20.491,-9.562c-2.049,-0.456 -3.643,-0.456 -7.513,-0.456c-2.732,-0.227 -5.237,-0.227 -5.692,0Z" style="fill:#99f6e4;stroke:#99f6e4;stroke-width:1px;"/><path d="M287.722,295.992c-2.277,1.139 -6.148,2.505 -8.652,3.416c-4.098,1.138 -7.741,1.821 -14.116,2.276c-1.594,0 -2.505,0.228 -2.732,0.456c-0.228,0.227 -2.96,5.464 -5.92,11.839c-7.741,15.938 -9.79,19.125 -14.344,24.134c-3.188,3.188 -4.326,3.871 -8.196,4.782c-2.96,0.91 -6.603,1.138 -8.652,0.91c-0.456,-0.227 -1.366,-0.227 -1.594,-0.227c-0.228,-0 -0.683,-0.228 -0.911,-0.228c0,-0.228 -0.227,-0.228 -0.227,-0c-0,-0 -0.228,0.228 -0.456,0.228c-0.228,-0 -0.455,-0.228 -0.455,-0.228c0.227,-0 -0,-0.228 -0.228,-0c-0.455,-0 -4.553,-1.139 -5.92,-2.049c-1.366,-0.683 -3.87,-3.415 -5.464,-5.465c-1.366,-2.049 -5.237,-9.334 -6.147,-12.067c-0.228,-1.138 -0.911,-3.187 -1.139,-4.553c-0.455,-1.366 -0.683,-2.505 -0.683,-2.732c-0.227,-0 -0.683,2.049 -0.91,4.326c-0.456,2.959 -0.228,7.513 0.455,10.701c0.683,3.642 1.594,7.513 2.049,8.879c2.049,5.464 8.197,10.473 16.393,12.978c5.009,1.821 12.067,2.277 17.759,1.366c3.188,-0.455 6.83,-1.366 9.335,-2.277c3.187,-1.366 7.741,-4.098 11.612,-7.058c3.187,-2.504 3.87,-3.188 5.692,-5.692c0.91,-1.366 2.049,-2.732 2.049,-2.96c0.227,-0.228 1.138,-1.594 2.277,-2.96c5.919,-7.741 10.017,-15.254 16.393,-28.687c3.642,-7.514 4.553,-10.018 4.325,-10.018c0,-0 -0.91,0.455 -1.593,0.91Z" style="fill:#99f6e4;stroke:#99f6e4;stroke-width:1px;"/><path d="M280.891,149.822c-0.683,-0 -1.138,-0 -1.138,0.228c0.228,-0 -0.683,0.227 -2.049,0.455c-11.157,2.049 -22.768,10.245 -30.282,21.402c-0.91,1.366 -3.187,5.692 -5.464,10.018c-2.049,4.326 -6.603,12.977 -9.79,19.125c-5.465,10.701 -7.741,15.482 -7.514,15.937c0.228,0 1.139,-0.227 2.505,-0.91c8.879,-3.188 13.433,-4.326 20.491,-4.782c2.96,0 3.188,0 3.643,-0.683c0.683,-0.683 6.603,-12.75 8.879,-18.214c5.237,-11.612 6.603,-14.799 7.742,-16.393c1.593,-2.277 3.87,-5.009 5.919,-6.83c14.572,-12.523 35.063,-10.246 48.496,5.464c6.147,7.058 10.018,16.393 10.701,25.955c0,1.139 0.228,2.05 0.228,1.822c0.227,-0.683 0.683,-4.554 0.683,-7.514c-0,-3.415 -0.683,-8.196 -1.366,-11.156c-1.139,-4.098 -3.188,-9.107 -5.465,-12.978c-5.919,-9.562 -18.214,-17.986 -29.826,-20.035c-1.366,-0.228 -2.504,-0.683 -2.277,-0.683c0,-0.228 -2.732,-0.456 -7.968,-0.456c-2.733,0 -5.692,0.228 -6.148,0.228Z" style="fill:#99f6e4;stroke:#99f6e4;stroke-width:1px;"/><path d="M292.048,164.393c-7.514,0.911 -14.344,4.782 -19.353,10.701c-0.683,1.139 -1.366,2.049 -1.366,2.049c-0,0.228 0.455,-0.227 1.138,-0.455c2.505,-1.821 6.147,-3.415 9.335,-4.326c7.969,-2.049 16.848,0.228 22.54,5.92c4.099,4.098 6.603,9.107 7.514,14.799c0.227,2.505 -0,6.603 -0.456,9.107c-0.683,3.643 -1.821,6.375 -6.147,14.572c-2.049,4.098 -5.692,11.156 -7.969,15.482c-6.147,12.295 -12.294,23.451 -15.482,28.915c-1.594,2.733 -5.92,5.692 -9.79,7.286c-2.732,1.139 -5.465,1.366 -9.563,1.366c-2.732,-0.227 -3.87,-0.227 -5.236,-0.683c-1.822,-0.455 -5.92,-2.504 -8.425,-3.87c-1.821,-1.139 -4.781,-3.871 -7.058,-6.831c-0.91,-0.911 -1.593,-1.821 -1.593,-1.821c-0.228,-0 -0.456,0.227 -0.683,0.683c-0.684,0.911 -3.188,5.464 -3.188,5.692c-0,0.227 -0.228,0.683 -0.455,0.911c-0.456,0.455 -4.099,8.424 -4.782,9.562c0,0.455 -0.227,0.683 -0.455,0.683c-0.228,0 -0.228,0 -0,0.228c-0,0.227 -0.455,0.455 -0.683,0.683c-0.228,0.455 -0.228,0.683 -0,0.683c0.228,-0 0.228,-0 0.228,0.228c-0,0.227 -0.228,0.227 -0.228,0.227c-0.683,0 -0.455,0.456 -0,1.139c0.911,1.138 7.969,6.375 10.473,7.968c4.098,2.277 9.107,4.326 13.433,5.237c3.416,0.683 5.692,0.911 9.791,0.911c5.692,-0 10.018,-0.683 15.254,-2.505c9.563,-3.415 17.076,-9.335 22.768,-18.442c0.683,-1.138 3.871,-7.058 7.058,-13.205c3.188,-6.148 6.375,-12.067 6.831,-13.206c2.504,-4.098 8.424,-16.165 9.335,-18.442c3.187,-7.513 4.781,-13.433 5.008,-20.036c0.456,-14.799 -5.919,-28.004 -16.848,-35.518c-6.83,-4.326 -14.344,-6.375 -20.946,-5.692Z" style="fill:#99f6e4;stroke:#99f6e4;stroke-width:1px;"/><path d="M365.588,323.769c-0.227,0.228 -0.227,0.456 -0.227,0.456c-0,0.227 0.455,-0 0.683,-0.228c0.683,-0.455 0.227,-0.683 -0.456,-0.228Z" style="fill:#99f6e4;stroke:#99f6e4;stroke-width:1px;"/><path d="M407.709,332.649c-0.911,1.366 -1.138,1.594 0,0.683c0.911,-0.911 1.138,-1.366 0.911,-1.366c-0,-0.228 -0.456,0.228 -0.911,0.683Z" style="fill:#99f6e4;stroke:#99f6e4;stroke-width:1px;"/><path d="M254.48,349.497c-0.455,0.228 -0.683,0.911 -0.227,0.911c0.227,-0 1.138,-0.683 1.138,-1.138c0,-0.228 -0.228,-0.228 -0.911,0.227Z" style="fill:#99f6e4;stroke:#99f6e4;stroke-width:1px;"/></g></svg>